<svg width="40" height="40" viewBox="0 0 40 40" fill="none" xmlns="http://www.w3.org/2000/svg">
<g clip-path="url(#clip0)">
<path d="M1.14117 32.4116C0.0781622 34.2266 0.328281 36.6674 1.89153 38.1694C3.39224 39.6714 5.76837 40.0469 7.64426 38.8578L8.26956 39.4837C8.95739 40.1721 10.0204 40.1721 10.6457 39.4837C11.4586 38.7327 15.7731 34.1014 16.9612 33.7259C19.2748 32.9749 20.0252 33.7885 23.0891 33.7885C27.5913 33.7885 31.8433 32.0361 35.0323 28.8443C41.848 22.0226 41.6604 10.8826 34.407 4.31127C28.029 -1.50907 17.8991 -1.44649 11.5211 4.56161C7.33161 8.50443 5.45572 14.1996 6.4562 19.8948C7.20655 24.0253 1.57888 27.9056 0.515871 29.345C-0.171957 30.0334 -0.171957 31.0974 0.515871 31.7232L1.14117 32.4116ZM2.76694 37.2932C1.70394 36.2293 1.45382 34.6021 2.07911 33.2878L6.70632 37.9817C5.45572 38.6075 3.82995 38.4197 2.76694 37.2932ZM7.70679 19.6444C6.76885 14.3874 8.51968 9.06768 12.3965 5.43779C18.2743 -0.132216 27.7163 -0.1948 33.6566 5.25004C34.8447 6.31397 35.8452 7.56566 36.6581 8.94252L33.4691 9.38061C33.2815 9.38061 33.1564 9.50577 33.0313 9.63094L31.1555 12.5724L26.7784 6.50173C26.6533 6.31397 26.3407 6.1888 26.1531 6.25139C25.903 6.31397 25.7154 6.50173 25.6528 6.75206L25.2151 9.69353L21.2132 9.63094L19.0247 8.25409C18.8371 8.12892 18.6495 8.12892 18.4619 8.1915L14.8977 9.69353C14.5851 9.8187 14.3975 10.1942 14.5851 10.5071C14.7101 10.82 15.0853 10.9452 15.398 10.82L18.6495 9.44319L20.713 10.7575C20.838 10.82 20.9006 10.8826 21.0256 10.8826L25.7154 10.9452C26.028 10.9452 26.2781 10.6949 26.3407 10.4445L26.6533 8.44184L30.6552 14.0118C30.7803 14.1996 30.9679 14.2622 31.1555 14.2622C31.343 14.2622 31.5306 14.137 31.6557 13.9493L33.9068 10.5071L37.2208 10.0064C39.9721 15.7642 39.0342 22.9614 34.1569 27.9056C31.218 30.847 27.2786 32.4742 23.0891 32.4742C20.2127 32.4742 19.2123 31.6606 16.586 32.4742C16.0858 32.662 15.6481 32.8497 13.2094 35.1028L9.45763 31.3477L20.6505 20.1451L20.3378 22.1478C20.2753 22.3356 20.4003 22.5233 20.5254 22.7111C20.6505 22.8362 20.7755 22.8988 20.9631 22.8988C21.0256 22.8988 21.0256 22.8988 21.0882 22.8988L25.0275 22.273C25.3402 22.2104 25.5903 21.8975 25.5278 21.5846C25.4652 21.2716 25.1526 21.0213 24.8399 21.0839L21.776 21.5846C22.2762 18.4553 22.3388 18.4553 22.2137 18.205C22.0886 17.8921 21.776 17.8295 21.8385 17.8295C21.7135 17.7669 21.5884 17.7669 21.5259 17.7669L18.4619 18.2676L18.9621 15.201C19.0247 14.888 18.7746 14.5125 18.4619 14.5125C18.1493 14.4499 17.7741 14.7003 17.7741 15.0132L17.1488 18.956C17.0863 19.1438 17.2113 19.3315 17.3364 19.5193C17.4614 19.6444 17.7116 19.707 17.8991 19.707L19.9001 19.3941L8.70727 30.6593L4.89295 26.8416C7.64426 23.2117 8.01944 21.4594 7.70679 19.6444ZM1.39129 30.2212L3.95501 27.6552L12.3965 36.1041L9.8328 38.6701C9.64522 38.8578 9.39509 38.8578 9.20751 38.6701L1.39129 30.847C1.2037 30.7219 1.2037 30.4089 1.39129 30.2212Z" fill="#0271C2"/>
</g>
<defs>
<clipPath id="clip0">
<rect width="40" height="40" fill="white"/>
</clipPath>
</defs>
</svg>
