<svg width="40" height="40" viewBox="0 0 40 40" fill="none" xmlns="http://www.w3.org/2000/svg">
<g clip-path="url(#clip0)">
<path d="M7.3334 20.6659V17.9993C7.3334 17.6311 7.03489 17.3326 6.66676 17.3326C6.29856 17.3326 6.00012 17.6312 6.00012 17.9993V23.3326C6.00012 23.7008 6.29856 23.9993 6.66676 23.9993C7.03496 23.9993 7.3334 23.7008 7.3334 23.3326V20.6659Z" fill="#0271B9"/>
<path d="M6.92006 25.386C6.88225 25.3667 6.84186 25.3533 6.80006 25.346C6.756 25.3386 6.71139 25.3341 6.6667 25.3326C6.49021 25.3352 6.32123 25.4043 6.19334 25.526C6.1331 25.5898 6.08553 25.6644 6.05334 25.746C5.95279 25.9947 6.00756 26.2792 6.19334 26.4727C6.25709 26.5329 6.33178 26.5805 6.41334 26.6127C6.4935 26.6468 6.57959 26.6649 6.6667 26.666C6.93756 26.6676 7.1824 26.5052 7.28631 26.255C7.39014 26.0048 7.3324 25.7167 7.14006 25.526L7.04006 25.446C7.00287 25.4208 6.96256 25.4005 6.92006 25.386Z" fill="#0271B9"/>
<path d="M34 38.4212V17.9993C34 17.6311 33.7015 17.3326 33.3333 17.3326C32.9651 17.3326 32.6667 17.6312 32.6667 17.9993V38.4213C32.6719 38.5508 32.5715 38.6602 32.442 38.666H7.55799C7.42853 38.6602 7.32807 38.5508 7.3333 38.4213V28.6659C7.3333 28.2977 7.03478 27.9993 6.66666 27.9993C6.29846 27.9993 6.00002 28.2977 6.00002 28.6659V38.4212C5.99557 39.2867 6.69252 39.9926 7.55799 39.9992H32.4419C33.3075 39.9926 34.0043 39.2867 34 38.4212Z" fill="#0271B9"/>
<path d="M1.11744 18.4906L19.696 1.45258C19.862 1.29547 20.1204 1.29078 20.292 1.44187L38.8827 18.4906C39.154 18.7395 39.5758 18.7213 39.8247 18.4499C40.0736 18.1786 40.0554 17.7568 39.784 17.5079L21.1814 0.448594C20.5024 -0.152186 19.4807 -0.147889 18.8067 0.458594L8.00008 10.3693V5.66593C8.00008 5.29773 7.70157 4.99929 7.33344 4.99929C6.96524 4.99929 6.6668 5.2978 6.6668 5.66593V11.5919L0.216035 17.5079C-0.0552928 17.7568 -0.0734959 18.1785 0.175332 18.4499C0.424316 18.7212 0.846034 18.7394 1.11744 18.4906Z" fill="#0271B9"/>
<path d="M21.67 15.9993H18.3334C17.7827 15.9993 17.3356 16.4446 17.3334 16.9953V18.666H15.7334C15.1442 18.666 14.6667 19.1436 14.6667 19.7326V33.5992C14.6667 34.1884 15.1443 34.6659 15.7334 34.6659H24.2667C24.8559 34.6659 25.3334 34.1883 25.3334 33.5992V19.7325C25.3334 19.1434 24.8558 18.6659 24.2667 18.6659H22.6667V16.9952C22.6645 16.4458 22.2194 16.0011 21.67 15.9993ZM18.6667 17.3325H21.3333V18.6659H18.6667V17.3325ZM24 19.9993V33.3326H16V19.9993H24Z" fill="#0271B9"/>
<path d="M18.6669 31.3325H21.3335C21.7017 31.3325 22.0002 31.0341 22.0002 30.6659C22.0002 30.2977 21.7017 29.9993 21.3335 29.9993H18.6669C18.2987 29.9993 18.0002 30.2977 18.0002 30.6659C18.0002 31.0341 18.2987 31.3325 18.6669 31.3325Z" fill="#0271B9"/>
<path d="M18.6669 28.6659H21.3335C21.7017 28.6659 22.0002 28.3675 22.0002 27.9993C22.0002 27.6311 21.7017 27.3326 21.3335 27.3326H18.6669C18.2987 27.3326 18.0002 27.6311 18.0002 27.9993C18.0002 28.3675 18.2987 28.6659 18.6669 28.6659Z" fill="#0271B9"/>
<path d="M18.6669 25.9992H21.3335C21.7017 25.9992 22.0002 25.7007 22.0002 25.3325C22.0002 24.9643 21.7017 24.6659 21.3335 24.6659H18.6669C18.2987 24.6659 18.0002 24.9643 18.0002 25.3325C18.0002 25.7007 18.2987 25.9992 18.6669 25.9992Z" fill="#0271B9"/>
<path d="M18.6669 23.3325H21.3335C21.7017 23.3325 22.0002 23.0341 22.0002 22.6659C22.0002 22.2977 21.7017 21.9993 21.3335 21.9993H18.6669C18.2987 21.9993 18.0002 22.2978 18.0002 22.6659C18.0002 23.034 18.2987 23.3325 18.6669 23.3325Z" fill="#0271B9"/>
</g>
<defs>
<clipPath id="clip0">
<rect width="40" height="40" fill="white"/>
</clipPath>
</defs>
</svg>
