<svg width="30" height="30" viewBox="0 0 30 30" fill="none" xmlns="http://www.w3.org/2000/svg">
<g clip-path="url(#clip0)">
<path d="M29.3012 10.3666C26.9572 3.09821 19.5132 -1.2361 12.0349 0.312994L11.5278 0.417168C11.3952 0.446016 11.2808 0.528439 11.2114 0.644747C11.142 0.761056 11.1242 0.901175 11.1617 1.03122C11.2382 1.28856 11.499 1.44425 11.7618 1.3893L12.235 1.29337C15.3181 0.668559 18.5219 1.09144 21.3373 2.49515H15.0422C12.4445 2.49515 10.1337 2.58833 8.31215 2.69525C8.44586 2.53728 8.47151 2.31428 8.37718 2.1302C8.31399 2.0116 8.20546 1.92391 8.07656 1.88682C7.94743 1.84996 7.80892 1.86667 7.69261 1.93353L7.23836 2.18354L6.81022 2.47363L6.22158 2.87681C6.19365 2.89238 6.16709 2.91047 6.14259 2.93085L5.95691 3.05837C3.84504 4.67982 2.19864 6.83015 1.18392 9.29186C1.14958 9.3436 1.12508 9.40153 1.11249 9.46243C0.764705 10.332 0.501409 11.2332 0.326259 12.1533C-0.379604 15.7719 0.274974 19.5236 2.1643 22.6895C2.96128 24.0101 3.9554 25.2014 5.1123 26.2216C5.14779 26.2674 5.19106 26.3065 5.24029 26.3372C9.6639 30.1704 15.9152 31.0749 21.2444 28.6533C23.9513 27.4085 26.2344 25.3978 27.8114 22.8695C27.8334 22.8409 27.852 22.8095 27.8668 22.7765C28.2055 22.2222 28.5063 21.6457 28.7671 21.0509C29.5677 19.2408 29.997 17.2883 30.03 15.3092C30.0307 15.2955 30.0307 15.2815 30.03 15.2678C30.0616 13.6049 29.8155 11.9484 29.3012 10.3666ZM6.56272 3.85422L6.62225 3.81323C8.55622 3.66556 11.5413 3.49545 15.0422 3.49545H23.0183C25.524 5.25083 27.3943 7.76978 28.3499 10.6759C28.76 11.9324 28.9887 13.2413 29.0292 14.5626C28.5915 14.3895 28.1624 14.216 27.7409 14.0383C26.9155 13.6882 26.3713 12.6879 25.7948 11.627C24.871 9.92652 23.7166 7.81145 20.9231 8.51204C18.9681 9.00178 18.4044 8.60202 17.5511 7.99804C16.4077 7.12253 15.0331 6.60097 13.5969 6.49748C11.0791 6.21381 10.1577 7.42223 9.34565 8.48457C8.55439 9.52081 7.80754 10.4978 5.5393 10.4978C4.33569 10.5742 3.14628 10.2015 2.20139 9.4519C3.15498 7.24525 4.656 5.31837 6.56272 3.85422ZM20.8281 27.7425C16.1469 29.8723 10.674 29.2552 6.5847 26.1367C7.31918 25.8805 7.96369 25.4171 8.44037 24.8021C8.85684 24.2276 9.18447 23.5937 9.41205 22.9217C9.81226 21.8712 10.0288 21.2936 12.113 20.996C13.8265 20.751 14.2095 21.2581 14.7357 21.9612C15.227 22.7559 16.0265 23.3102 16.943 23.4918C17.6301 23.6294 18.2554 23.8105 18.8069 23.9705C20.2796 24.3966 21.5514 24.7636 22.8202 23.9204C23.4034 23.525 23.824 22.9322 24.0051 22.2513C24.1992 21.6901 24.2643 21.5013 25.0454 21.5013C25.7032 21.5013 26.3258 22.0443 26.7885 22.5929C25.3252 24.8355 23.2594 26.6204 20.8281 27.7425ZM27.8538 20.6509C27.6963 21.0106 27.5188 21.3602 27.3306 21.7041C26.7724 20.9989 25.9427 20.5621 25.0454 20.5007C23.5524 20.5007 23.2793 21.2902 23.0593 21.9244C22.9482 22.3962 22.6659 22.81 22.2671 23.0856C21.3847 23.6738 20.4705 23.4098 19.0876 23.0091C18.5164 22.8441 17.8691 22.6591 17.1411 22.5114C16.4654 22.3768 15.8804 21.9576 15.5361 21.3611C14.9454 20.5708 14.2757 19.674 11.9704 20.0046C9.30215 20.3858 8.91934 21.3962 8.47677 22.5666C8.28239 23.1509 8.00032 23.7024 7.63995 24.202C7.13625 24.8108 6.43451 25.2229 5.65744 25.3665C4.62761 24.4378 3.73973 23.3627 3.02264 22.1758C1.25947 19.2211 0.649313 15.7197 1.30847 12.3429C1.4321 11.6929 1.60313 11.053 1.82018 10.4282C2.90908 11.183 4.21595 11.559 5.5393 11.4981C8.30231 11.4981 9.32161 10.1651 10.1408 9.09427C10.9176 8.07841 11.5342 7.2773 13.4879 7.49389C14.7549 7.57998 15.9679 8.03948 16.9739 8.81426C17.9342 9.49746 18.765 10.0827 21.1651 9.48235C23.0774 9.00384 23.8565 10.155 24.9163 12.1048C25.5501 13.2702 26.2044 14.4754 27.3522 14.9596C27.8968 15.1892 28.4525 15.4097 29.0242 15.6348C28.9532 17.3657 28.556 19.0675 27.8538 20.6509Z" fill="#A3C9F5"/>
<path d="M9.5517 1.97404C9.61146 1.99739 9.67533 2.0093 9.73967 2.00907C9.93703 2.00632 10.114 1.88681 10.1898 1.70456C10.2147 1.64503 10.2289 1.58184 10.2319 1.51751C10.2356 1.45271 10.2269 1.38769 10.2058 1.32633C10.1593 1.20041 10.0666 1.09715 9.94619 1.03785C9.82072 0.989999 9.68152 0.992059 9.55765 1.0438C9.43264 1.09761 9.33213 1.19606 9.27558 1.31992L9.24811 1.41288C9.24124 1.44584 9.23918 1.4795 9.24147 1.51293C9.23918 1.54452 9.24192 1.57612 9.24948 1.60703C9.25726 1.63954 9.26757 1.67136 9.27993 1.7025C9.33465 1.82293 9.43104 1.91955 9.5517 1.97404Z" fill="#A3C9F5"/>
<path d="M17.0431 14.499C16.7667 14.499 16.5428 14.7229 16.5428 14.9993C16.5428 15.0403 16.5259 15.9996 15.0423 15.9996C13.642 15.9996 13.547 15.1602 13.5419 14.9993C13.5419 14.7229 13.318 14.499 13.0417 14.499C12.7655 14.499 12.5416 14.7229 12.5416 14.9993C12.5416 15.691 13.0643 16.9999 15.0423 16.9999C17.0204 16.9999 17.5431 15.691 17.5431 14.9993C17.5431 14.7229 17.3192 14.499 17.0431 14.499Z" fill="#A3C9F5"/>
<path d="M6.53958 8.49709C7.36839 8.49709 8.04014 7.82534 8.04014 6.99653C8.04014 6.16795 7.36839 5.49597 6.53958 5.49597C5.711 5.49597 5.03925 6.16795 5.03925 6.99653C5.03925 7.82534 5.711 8.49709 6.53958 8.49709ZM6.53958 6.4965C6.81592 6.4965 7.03984 6.72041 7.03984 6.99653C7.03984 7.27288 6.81592 7.49679 6.53958 7.49679C6.26346 7.49679 6.03954 7.27288 6.03954 6.99653C6.03954 6.72041 6.26346 6.4965 6.53958 6.4965Z" fill="#A3C9F5"/>
<path d="M24.5454 14.9993C23.4405 14.9993 22.5446 15.8949 22.5446 16.9999C22.5446 18.1048 23.4405 19.0004 24.5454 19.0004C25.6501 19.0004 26.546 18.1048 26.546 16.9999C26.546 15.8949 25.6501 14.9993 24.5454 14.9993ZM24.5454 18.0002C23.9929 18.0002 23.5449 17.5523 23.5449 16.9999C23.5449 16.4474 23.9929 15.9996 24.5454 15.9996C25.0978 15.9996 25.5457 16.4474 25.5457 16.9999C25.5457 17.5523 25.0978 18.0002 24.5454 18.0002Z" fill="#A3C9F5"/>
<path d="M5.03926 18.0001C4.21045 18.0001 3.5387 18.6719 3.5387 19.5005C3.5387 20.3293 4.21045 21.001 5.03926 21.001C5.86784 21.001 6.53959 20.3293 6.53959 19.5005C6.53959 18.6719 5.86784 18.0001 5.03926 18.0001ZM5.03926 20.0007C4.76291 20.0007 4.53899 19.7768 4.53899 19.5005C4.53899 19.2243 4.76291 19.0004 5.03926 19.0004C5.31537 19.0004 5.53929 19.2243 5.53929 19.5005C5.53929 19.7768 5.31537 20.0007 5.03926 20.0007Z" fill="#A3C9F5"/>
<path d="M13.5419 12.4984C13.5408 12.2754 13.4895 12.0553 13.3917 11.8545C13.5364 11.7124 13.5808 11.4967 13.5041 11.309C13.4274 11.121 13.2447 10.998 13.0416 10.9978H11.041C10.8382 10.998 10.6555 11.121 10.5786 11.309C10.5019 11.4967 10.5463 11.7124 10.691 11.8545C10.5932 12.0551 10.5419 12.2751 10.541 12.4984C10.541 13.3269 11.2128 13.9989 12.0413 13.9989C12.8702 13.9989 13.5419 13.3269 13.5419 12.4984ZM12.0413 12.9984C11.7652 12.9984 11.5413 12.7745 11.5413 12.4984C11.5413 12.222 11.7652 11.9981 12.0413 11.9981C12.3177 11.9981 12.5416 12.222 12.5416 12.4984C12.5416 12.7745 12.3177 12.9984 12.0413 12.9984Z" fill="#A3C9F5"/>
<path d="M19.5436 11.4981C19.5436 11.2217 19.3197 10.9978 19.0436 10.9978H17.043C16.8399 10.998 16.6572 11.121 16.5805 11.309C16.5038 11.4967 16.548 11.7124 16.6927 11.8545C16.595 12.0551 16.5437 12.2751 16.5428 12.4984C16.5386 13.117 16.9146 13.675 17.4897 13.9032C18.0648 14.1315 18.721 13.9834 19.1423 13.53C19.5636 13.0769 19.6634 12.4116 19.3937 11.8545C19.4894 11.7607 19.5436 11.6322 19.5436 11.4981ZM18.0433 12.9984C17.767 12.9984 17.5431 12.7745 17.5431 12.4984C17.5431 12.222 17.767 11.9981 18.0433 11.9981C18.3194 11.9981 18.5433 12.222 18.5433 12.4984C18.5433 12.7745 18.3194 12.9984 18.0433 12.9984Z" fill="#A3C9F5"/>
</g>
<defs>
<clipPath id="clip0">
<rect width="30" height="30" fill="white"/>
</clipPath>
</defs>
</svg>
