<svg width="25" height="25" viewBox="0 0 25 25" fill="none" xmlns="http://www.w3.org/2000/svg">
<path fill-rule="evenodd" clip-rule="evenodd" d="M4.97148 3.31631H20.0285C22.7698 3.31631 25 5.55346 25 8.30327V16.6967C25 19.4466 22.7698 21.6837 20.0285 21.6837H4.97148C2.23018 21.6837 0 19.4465 0 16.6967V8.30327C0 5.55346 2.23018 3.31631 4.97148 3.31631ZM20.0285 20.6633C22.2071 20.6633 23.9796 18.8838 23.9796 16.6967L23.9795 8.30327C23.9795 6.11621 22.207 4.33672 20.0285 4.33672H4.97148C2.79292 4.33672 1.02041 6.11621 1.02041 8.30327V16.6967C1.02041 18.8838 2.79292 20.6633 4.97148 20.6633H20.0285Z" fill="#A3C9F5"/>
<path fill-rule="evenodd" clip-rule="evenodd" d="M9.95178 8.17495L17.0206 12.3154C17.1771 12.4068 17.273 12.5745 17.273 12.7556C17.273 12.9367 17.1768 13.1044 17.0206 13.1958L9.95178 17.3352C9.87205 17.3818 9.78308 17.4052 9.69392 17.4052C9.60647 17.4052 9.51877 17.3828 9.44006 17.3377C9.28162 17.2468 9.18372 17.0779 9.18372 16.895V8.61514C9.18372 8.43228 9.28162 8.26338 9.44031 8.17246C9.59905 8.08154 9.79485 8.08301 9.95178 8.17495ZM10.2041 9.50527V16.0049L15.7531 12.7556L10.2041 9.50527Z" fill="#A3C9F5"/>
</svg>
