<svg width="25" height="25" viewBox="0 0 25 25" fill="none" xmlns="http://www.w3.org/2000/svg">
<g clip-path="url(#clip0)">
<path d="M0.0513623 6.13185C0.166978 7.07786 0.400015 8.00577 0.745055 8.89412C1.44031 10.6363 2.37417 12.2735 3.51983 13.7587C3.60009 13.8745 3.6851 13.9868 3.77479 14.0954C3.91872 14.2771 4.18213 14.3093 4.36556 14.1674C4.5446 14.0267 4.57589 13.7676 4.43557 13.5883C4.34808 13.4825 4.26474 13.3733 4.18559 13.2609C3.08754 11.8378 2.1921 10.2694 1.52497 8.6004C1.20493 7.77795 0.988151 6.91894 0.879615 6.04309C0.780746 5.18188 0.841044 4.30978 1.05753 3.4704C1.20932 2.93401 1.56291 2.47726 2.04412 2.19594L4.1602 0.926464C4.45227 0.750453 4.83115 0.8357 5.0197 1.11976L8.39443 6.17974C8.57869 6.45838 8.51815 6.83184 8.25528 7.03802L6.36085 8.51163C5.78434 8.95247 5.6197 9.75011 5.97466 10.3832L6.12508 10.6565C6.65756 11.6331 7.31956 12.8479 9.73646 15.2644C12.1533 17.681 13.3678 18.343 14.344 18.8754L14.6177 19.0262C15.2508 19.3811 16.0484 19.2165 16.4892 18.64L17.9628 16.7456C18.1691 16.4829 18.5424 16.4224 18.8211 16.6064L23.8811 19.9812C24.1652 20.1698 24.2504 20.5486 24.0744 20.8407L22.8049 22.9567C22.5237 23.4374 22.0672 23.7904 21.5313 23.9417C18.9682 24.6454 14.4902 24.0625 7.71367 17.286L6.57002 16.0948C6.41188 15.9308 6.15238 15.9208 5.98213 16.0723C5.89956 16.1468 5.85064 16.2514 5.8464 16.3625C5.84215 16.4736 5.88301 16.5817 5.95962 16.6622L7.12412 17.8755C12.7391 23.49 16.9192 24.9999 19.7923 24.9999C20.4535 25.0027 21.1121 24.9167 21.7505 24.7441C22.4932 24.5359 23.1263 24.0481 23.517 23.383L24.7894 21.2682C25.1947 20.5948 24.9984 19.7218 24.344 19.2866L19.2836 15.9119C18.6414 15.4871 17.7806 15.6269 17.3058 16.2331L15.8318 18.1284C15.6423 18.3782 15.298 18.4506 15.0239 18.2984L14.7435 18.1438C13.814 17.6372 12.6575 17.0064 10.3272 14.6753C7.997 12.3443 7.36497 11.1869 6.85832 10.259L6.70458 9.97865C6.55024 9.70465 6.62133 9.35883 6.87121 9.16788L8.76525 7.69427C9.37125 7.21945 9.51123 6.35888 9.0869 5.7165L5.71218 0.656076C5.2772 0.00193069 4.40477 -0.19444 3.73148 0.210263L1.61539 1.4814C0.950507 1.87238 0.462608 2.50539 0.253885 3.24795C0.00966649 4.18865 -0.0589802 5.1663 0.0513623 6.13185Z" fill="#C0C0C0"/>
<path d="M5.18763 14.722C5.13378 14.7183 5.07973 14.7251 5.02846 14.742C4.97647 14.7575 4.92803 14.7831 4.886 14.8175C4.80177 14.8901 4.74782 14.9916 4.73474 15.102C4.72986 15.2124 4.76726 15.3206 4.83932 15.4045C4.91422 15.4873 5.01733 15.5391 5.12846 15.5499L5.20887 15.5465C5.23748 15.5436 5.26556 15.5365 5.29221 15.5257C5.31789 15.5192 5.34245 15.509 5.36511 15.4953C5.38898 15.4808 5.41183 15.4647 5.43341 15.4469C5.51539 15.3735 5.5667 15.2719 5.57715 15.1624C5.58755 14.9351 5.41603 14.7404 5.18924 14.722H5.18763Z" fill="#C0C0C0"/>
<path d="M14.1653 4.16826C18.0752 4.1726 21.2436 7.34114 21.248 11.251C21.248 11.4811 21.4345 11.6676 21.6647 11.6676C21.8948 11.6676 22.0813 11.4811 22.0813 11.251C22.0764 6.88112 18.5351 3.33981 14.1653 3.33503C13.9352 3.33503 13.7487 3.52158 13.7487 3.75164C13.7487 3.9817 13.9352 4.16826 14.1653 4.16826Z" fill="#C0C0C0"/>
<path d="M14.1653 6.66811C16.6951 6.67108 18.7453 8.72121 18.7482 11.2511C18.7482 11.4812 18.9348 11.6677 19.1649 11.6677C19.395 11.6677 19.5815 11.4812 19.5815 11.2511C19.578 8.26119 17.1551 5.83829 14.1653 5.83487C13.9352 5.83487 13.7487 6.02143 13.7487 6.25149C13.7486 6.48155 13.9352 6.66811 14.1653 6.66811Z" fill="#C0C0C0"/>
<path d="M14.1653 9.16788C15.3152 9.16924 16.247 10.1011 16.2485 11.2511C16.2485 11.4812 16.435 11.6677 16.6651 11.6677C16.8952 11.6677 17.0817 11.4812 17.0817 11.2511C17.0798 9.64113 15.7752 8.33645 14.1653 8.33464C13.9352 8.33464 13.7487 8.5212 13.7487 8.75126C13.7486 8.98132 13.9352 9.16788 14.1653 9.16788Z" fill="#C0C0C0"/>
</g>
<defs>
<clipPath id="clip0">
<rect width="25" height="25" fill="white"/>
</clipPath>
</defs>
</svg>
