<svg width="30" height="30" viewBox="0 0 30 30" fill="none" xmlns="http://www.w3.org/2000/svg">
<path d="M6.4999 27H5.49994C4.67189 27.0009 4.00082 27.672 3.99994 28.5V29.5C3.99994 29.7762 4.22383 30 4.49992 30H18.4999C18.7761 30 18.9999 29.7762 18.9999 29.5V28.5C18.999 27.672 18.3279 27.0009 17.4999 27H16.4999V21.9835C16.6924 22.0075 16.8833 22.0361 17.081 22.0456C17.1977 22.0512 17.3151 22.0539 17.4326 22.0539C17.5761 22.0539 17.7197 22.0498 17.862 22.0412C19.8651 21.9329 21.7072 20.9101 22.8581 19.267C23.9355 17.6869 24.0505 15.7556 24.0304 14.2495C24.0139 12.9967 24.0059 11.7519 24.0035 10.4996C25.1061 10.4965 25.9986 9.60252 26 8.49996V3.99996C26 2.61926 24.8806 1.49994 23.4999 1.49994C22.1192 1.49994 20.9999 2.61926 20.9999 3.99996V8.49996C21.0012 9.60398 21.8959 10.4987 22.9999 10.4999H23.0035C23.0059 11.7565 23.0138 13.0056 23.0304 14.2627C23.0485 15.6218 22.9516 17.3549 22.0319 18.7036C21.056 20.0916 19.4965 20.9542 17.8022 21.0432C17.5781 21.0562 17.3535 21.0573 17.1293 21.0466C16.9253 21.0367 16.7144 21.0162 16.4999 20.9846V6C16.4999 2.69162 14.257 0 11.4999 0C8.74287 0 6.49996 2.69162 6.49996 6V11.5C6.49996 11.7762 6.72385 12 6.99994 12C7.27603 12 7.49992 11.7762 7.49992 11.5V9.58477C8.32181 11.0313 9.83705 11.9462 11.4999 12C13.1628 11.9462 14.678 11.0313 15.5 9.58477V20.7466C14.9671 20.5852 14.4615 20.3448 14 20.0334V15.5C14 14.1193 12.8806 13 11.4999 13C10.1192 13 8.99992 14.1193 8.99992 15.5V25C9.00045 25.552 9.44787 25.9994 9.99994 26H12.9999C13.552 25.9995 13.9994 25.552 14 25V21.1939C14.4742 21.4529 14.9778 21.654 15.5 21.793V27H7.49992V15.5C7.49992 15.2238 7.27609 15 6.99994 15C6.72379 15 6.49996 15.2239 6.49996 15.5V27H6.4999ZM23.4999 2.50002C24.3283 2.50002 24.9999 3.17162 24.9999 4.00002C24.9999 4.82842 24.3283 5.50002 23.4999 5.50002C22.6715 5.50002 21.9999 4.82842 21.9999 4.00002C22.0008 3.17197 22.6719 2.5009 23.4999 2.50002ZM21.9999 8.50002V5.98723C22.8831 6.67096 24.1168 6.67096 24.9999 5.98723V8.50002C24.9994 9.05209 24.552 9.49945 23.9999 9.50004H22.9999C22.4479 9.49945 22.0005 9.05203 21.9999 8.50002ZM11.4999 11C9.29435 11 7.49992 8.75707 7.49992 6C7.49992 3.24293 9.29435 1.00002 11.4999 1.00002C13.7055 1.00002 15.5 3.24293 15.5 6C15.5 8.75707 13.7055 11 11.4999 11ZM12.9999 19.0847C12.8286 18.865 12.6804 18.6282 12.5576 18.3782C12.4765 18.2038 12.4045 18.0255 12.3418 17.8438C12.5779 17.7589 12.7998 17.6387 12.9999 17.4872V19.0847ZM11.4999 14C12.2137 14 12.8286 14.503 12.9701 15.2026C13.1116 15.9022 12.7405 16.6046 12.0828 16.882C12.001 16.4371 11.9729 15.9838 11.999 15.5321C12.0158 15.2572 11.807 15.0204 11.532 15.0026C11.2571 14.9848 11.0196 15.1928 11.0009 15.4676C10.9716 15.9567 10.9965 16.4475 11.0751 16.9311C10.3603 16.7217 9.90853 16.0183 10.0153 15.2812C10.1222 14.5441 10.7551 13.9979 11.4999 14ZM12.9999 25H9.99994V17.4872C10.3841 17.7777 10.8446 17.9498 11.3252 17.9823C11.4169 18.2663 11.5277 18.5437 11.6569 18.8127C11.9804 19.467 12.438 20.046 12.9999 20.5118V25ZM15.9999 28H17.4999C17.7759 28.0004 17.9996 28.224 17.9999 28.5V29H4.9999V28.5C5.00025 28.224 5.2239 28.0004 5.49988 28H15.9999Z" fill="#A3C9F5"/>
<path d="M6.99986 14.0001C7.20201 13.9993 7.384 13.8773 7.46152 13.6906C7.53903 13.5039 7.49702 13.2889 7.35488 13.1451L7.27993 13.085C7.25204 13.066 7.22175 13.0509 7.18982 13.0398C7.16146 13.0254 7.13111 13.0154 7.0997 13.0101C7.06665 13.0045 7.03331 13.0011 6.99986 13.0001C6.86749 13.0019 6.7407 13.0537 6.64484 13.1451C6.52355 13.262 6.47029 13.4327 6.50369 13.5978C6.53709 13.763 6.65246 13.8995 6.80966 13.9601C6.86978 13.9857 6.93441 13.9993 6.99986 14.0001Z" fill="#A3C9F5"/>
<path d="M9.99988 4C9.17183 4.00088 8.50076 4.67195 8.49988 5.5V5.99998C8.50076 6.82803 9.17183 7.4991 9.99988 7.49998H12.9999C13.8279 7.4991 14.499 6.82803 14.4999 5.99998V5.5C14.499 4.67195 13.8279 4.00088 12.9999 4H9.99988ZM13.4999 5.5V5.99998C13.4995 6.27596 13.2759 6.49961 12.9999 6.49996H9.99988C9.7239 6.49961 9.50025 6.27596 9.4999 5.99998V5.5C9.50025 5.22402 9.7239 5.00037 9.99988 5.00002H12.9999C13.2759 5.00031 13.4995 5.22396 13.4999 5.5Z" fill="#A3C9F5"/>
<path d="M11.4999 8.5C11.2238 8.5 10.9999 8.72383 10.9999 8.99998V9.49996C10.9999 9.77611 11.2238 9.99994 11.4999 9.99994C11.776 9.99994 11.9999 9.77605 11.9999 9.49996V8.99998C11.9999 8.72383 11.7761 8.5 11.4999 8.5Z" fill="#A3C9F5"/>
<path d="M23 4.49996H24C24.2762 4.49996 24.5 4.27613 24.5 3.99998C24.5 3.72383 24.2761 3.5 24 3.5H23C22.7238 3.5 22.5 3.72389 22.5 3.99998C22.5 4.27613 22.7239 4.49996 23 4.49996Z" fill="#A3C9F5"/>
</svg>
