<svg width="25" height="25" viewBox="0 0 25 25" fill="none" xmlns="http://www.w3.org/2000/svg">
<path d="M4.87912 3.63036C4.91677 3.59052 4.94651 3.54384 4.96662 3.49286C4.98796 3.44276 4.99929 3.38895 4.99997 3.33451C5.00095 3.16522 4.89944 3.0122 4.74309 2.94725C4.58674 2.88236 4.40666 2.91845 4.28748 3.03866L4.23748 3.10116C4.2217 3.1244 4.20906 3.1496 4.19998 3.17616C4.18791 3.19979 4.17952 3.22504 4.17498 3.25116C4.17034 3.2787 4.16755 3.30658 4.16663 3.33451C4.16824 3.44481 4.2114 3.55043 4.28748 3.63036C4.32732 3.66801 4.374 3.69774 4.42498 3.71786C4.58039 3.78075 4.75823 3.74647 4.87912 3.63036Z" fill="#C0C0C0"/>
<path d="M23.75 2.91787H6.25C6.01987 2.91787 5.83335 3.10445 5.83335 3.33452C5.83335 3.5646 6.01992 3.75117 6.25 3.75117H23.75C23.9801 3.75117 24.1667 3.93775 24.1667 4.16782V20.8345C24.1667 21.0646 23.9801 21.2511 23.75 21.2511H1.25C1.01987 21.2511 0.83335 21.0646 0.83335 20.8345V4.16787C0.83335 3.93775 1.01992 3.75122 1.25 3.75122H2.91665C3.14678 3.75122 3.3333 3.56465 3.3333 3.33457C3.3333 3.10449 3.14673 2.91792 2.91665 2.91792H1.25C0.559668 2.91787 0 3.47754 0 4.16787V20.8345C0 21.5249 0.559668 22.0845 1.25 22.0845H23.75C24.4403 22.0845 25 21.5249 25 20.8345V4.16787C25 3.47754 24.4404 2.91787 23.75 2.91787Z" fill="#C0C0C0"/>
<path d="M1.7642 4.73328C1.69316 4.81795 1.65859 4.92732 1.66821 5.03743C1.67783 5.14753 1.7308 5.24929 1.81542 5.32034L11.4279 13.3949C12.0475 13.9165 12.9525 13.9165 13.5721 13.3949L23.1846 5.32034C23.3609 5.17239 23.3838 4.90955 23.2359 4.73328C23.0879 4.55701 22.8251 4.53406 22.6488 4.68201L13.0363 12.757C12.7263 13.0176 12.2738 13.0176 11.9638 12.757L2.35131 4.68201C2.26664 4.61096 2.15727 4.57639 2.04716 4.58601C1.93705 4.59568 1.83525 4.64861 1.7642 4.73328Z" fill="#C0C0C0"/>
<path d="M7.61212 13.467L1.77877 19.717C1.6732 19.8251 1.63443 19.982 1.6775 20.1268C1.72057 20.2717 1.83868 20.3818 1.98614 20.4147C2.13365 20.4476 2.28736 20.3981 2.38795 20.2853L8.2213 14.0353C8.32686 13.9272 8.36563 13.7704 8.32257 13.6256C8.2795 13.4807 8.16139 13.3705 8.01393 13.3376C7.86646 13.3047 7.7127 13.3542 7.61212 13.467Z" fill="#C0C0C0"/>
<path d="M16.7992 13.4466C16.6311 13.6036 16.6219 13.8671 16.7788 14.0354L22.6121 20.2854C22.7704 20.4474 23.0289 20.4535 23.1945 20.299C23.3601 20.1445 23.372 19.8861 23.2213 19.717L17.388 13.467C17.231 13.2988 16.9674 13.2897 16.7992 13.4466Z" fill="#C0C0C0"/>
</svg>
