<svg width="25" height="25" viewBox="0 0 25 25" fill="none" xmlns="http://www.w3.org/2000/svg">
<g clip-path="url(#clip0)">
<path fill-rule="evenodd" clip-rule="evenodd" d="M19.9825 4.46886H17.536C15.6917 4.46886 15.3046 5.56315 15.3046 6.48136V7.9591H19.4194V12.6555H15.3046V25H9.0877V12.645L5.01758 12.657V7.97262L9.08242 7.96056C9.08242 5.47824 9.45664 4.41588 9.47373 4.36891C10.6456 -0.0992546 15.1662 -0.0128776 15.5369 0.00269859H19.9825V4.46886ZM18.3908 11.6269V8.98785H14.276V6.4814C14.276 5.01119 15.1325 3.44024 17.5362 3.44024H18.9539V1.0315L15.4928 1.03048C15.3271 1.02042 11.4659 0.826521 10.4548 4.67511L10.4535 4.67895C10.4247 4.76795 10.0642 5.88098 10.1165 8.46319L10.1271 8.98633L6.04639 8.9984V11.6254L10.1165 11.6133V23.9713H14.276V11.6269H18.3908Z" fill="#A3C9F5"/>
</g>
<defs>
<clipPath id="clip0">
<rect width="25" height="25" fill="white"/>
</clipPath>
</defs>
</svg>
