<svg width="25" height="25" viewBox="0 0 25 25" fill="none" xmlns="http://www.w3.org/2000/svg">
<path fill-rule="evenodd" clip-rule="evenodd" d="M5.3126 0H19.6874C22.6166 0 25 2.39028 25 5.32866V19.1508C25 22.0889 22.6166 24.4792 19.6874 24.4792H5.3126C2.38345 24.4792 0 22.0889 0 19.1508V5.32861C0 2.39028 2.38345 0 5.3126 0ZM5.37109 1.00913C2.97103 1.00913 1.02539 2.95477 1.02539 5.35483V19.0755C1.02539 21.4756 2.97103 23.4212 5.37109 23.4212H19.6289C22.029 23.4212 23.9746 21.4756 23.9746 19.0755V5.35483C23.9746 2.95477 22.029 1.00913 19.6289 1.00913H5.37109Z" fill="#A3C9F5"/>
<path d="M0.634766 8.87046H8.83789V9.89585H0.634766V8.87046Z" fill="#A3C9F5"/>
<path d="M16.1621 8.87046H24.3652V9.89585H16.1621V8.87046Z" fill="#A3C9F5"/>
<path fill-rule="evenodd" clip-rule="evenodd" d="M18.5415 2.6042H21.0419C21.7885 2.6042 22.3958 3.21147 22.3958 3.95815V6.45854C22.3958 7.20518 21.7885 7.8125 21.0418 7.8125H18.5415C17.7948 7.8125 17.1875 7.20522 17.1875 6.45854V3.95815C17.1875 3.21147 17.7948 2.6042 18.5415 2.6042ZM21.0418 6.77085C21.2143 6.77085 21.3542 6.63071 21.3542 6.45854V3.95815C21.3542 3.78599 21.2143 3.64585 21.0418 3.64585H18.5415C18.369 3.64585 18.2292 3.78599 18.2292 3.95815V6.45854C18.2292 6.63071 18.369 6.77085 18.5415 6.77085H21.0418Z" fill="#A3C9F5"/>
<path fill-rule="evenodd" clip-rule="evenodd" d="M12.5 22.3959C8.48808 22.3959 5.22461 19.1319 5.22461 15.1205C5.22461 11.1089 8.48808 7.84507 12.5 7.84507C16.5119 7.84507 19.7754 11.109 19.7754 15.1205C19.7754 19.1319 16.5119 22.3959 12.5 22.3959ZM12.5 21.3542C15.9464 21.3542 18.75 18.5504 18.75 15.1042C18.75 11.658 15.9464 8.8542 12.5 8.8542C9.05356 8.8542 6.25 11.658 6.25 15.1042C6.25 18.5504 9.05356 21.3542 12.5 21.3542Z" fill="#A3C9F5"/>
<path fill-rule="evenodd" clip-rule="evenodd" d="M12.5 19.7917C9.91514 19.7917 7.8125 17.6888 7.8125 15.1042C7.8125 12.5196 9.91514 10.4167 12.5 10.4167C15.0849 10.4167 17.1875 12.5196 17.1875 15.1042C17.1875 17.6888 15.0849 19.7917 12.5 19.7917ZM12.5 18.75C14.5101 18.75 16.1459 17.1145 16.1459 15.1042C16.1459 13.0938 14.5101 11.4583 12.5 11.4583C10.4899 11.4583 8.85415 13.0938 8.85415 15.1042C8.85415 17.1145 10.4899 18.75 12.5 18.75Z" fill="#A3C9F5"/>
</svg>
