<svg width="89" height="23" viewBox="0 0 89 23" fill="none" xmlns="http://www.w3.org/2000/svg">
<path d="M0.7 22V0.999999H4.39V18.64H15.43V22H0.7ZM35.983 19.18C33.903 21.3 31.273 22.36 28.093 22.36C24.913 22.36 22.293 21.31 20.233 19.21C18.173 17.11 17.143 14.54 17.143 11.5C17.143 8.5 18.183 5.94 20.263 3.82C22.343 1.7 24.973 0.64 28.153 0.64C31.333 0.64 33.953 1.69 36.013 3.79C38.073 5.89 39.103 8.46 39.103 11.5C39.103 14.5 38.063 17.06 35.983 19.18ZM23.023 16.81C24.383 18.25 26.093 18.97 28.153 18.97C30.213 18.97 31.903 18.25 33.223 16.81C34.563 15.37 35.233 13.6 35.233 11.5C35.233 9.42 34.553 7.66 33.193 6.22C31.853 4.76 30.153 4.03 28.093 4.03C26.033 4.03 24.333 4.75 22.993 6.19C21.673 7.63 21.013 9.4 21.013 11.5C21.013 13.58 21.683 15.35 23.023 16.81ZM53.5213 22.36C50.2813 22.36 47.6513 21.34 45.6313 19.3C43.6313 17.24 42.6313 14.64 42.6313 11.5C42.6313 8.5 43.6513 5.94 45.6913 3.82C47.7513 1.7 50.3413 0.64 53.4613 0.64C55.2213 0.64 56.7213 0.88 57.9613 1.36C59.2013 1.82 60.3913 2.53 61.5313 3.49L59.1913 6.28C58.3113 5.52 57.4213 4.96 56.5213 4.6C55.6413 4.22 54.5713 4.03 53.3113 4.03C51.3913 4.03 49.7713 4.76 48.4513 6.22C47.1513 7.68 46.5013 9.44 46.5013 11.5C46.5013 13.68 47.1613 15.48 48.4813 16.9C49.8013 18.3 51.5213 19 53.6413 19C55.6013 19 57.2913 18.47 58.7113 17.41V13.48H53.3413V10.27H62.2813V19.09C59.7413 21.27 56.8213 22.36 53.5213 22.36ZM84.9967 19.18C82.9167 21.3 80.2867 22.36 77.1067 22.36C73.9267 22.36 71.3067 21.31 69.2467 19.21C67.1867 17.11 66.1567 14.54 66.1567 11.5C66.1567 8.5 67.1967 5.94 69.2767 3.82C71.3567 1.7 73.9867 0.64 77.1667 0.64C80.3467 0.64 82.9667 1.69 85.0267 3.79C87.0867 5.89 88.1167 8.46 88.1167 11.5C88.1167 14.5 87.0767 17.06 84.9967 19.18ZM72.0367 16.81C73.3967 18.25 75.1067 18.97 77.1667 18.97C79.2267 18.97 80.9167 18.25 82.2367 16.81C83.5767 15.37 84.2467 13.6 84.2467 11.5C84.2467 9.42 83.5667 7.66 82.2067 6.22C80.8667 4.76 79.1667 4.03 77.1067 4.03C75.0467 4.03 73.3467 4.75 72.0067 6.19C70.6867 7.63 70.0267 9.4 70.0267 11.5C70.0267 13.58 70.6967 15.35 72.0367 16.81Z" fill="white"/>
</svg>
