<svg width="25" height="25" viewBox="0 0 25 25" fill="none" xmlns="http://www.w3.org/2000/svg">
<path d="M3.70949 6.97754C3.60044 6.94987 3.48325 6.96777 3.38722 7.02637C3.29119 7.08659 3.22283 7.18262 3.20005 7.29492C3.15285 7.58138 3.09751 7.86784 3.05845 8.15592L3.00148 9.02832L3.83481 9.04134L3.8869 8.25033C3.92108 7.98828 3.97316 7.72786 4.01385 7.46745C4.05942 7.24935 3.92596 7.0345 3.70949 6.97754Z" fill="#C0C0C0"/>
<path d="M12.1698 0.833333L12.1714 0C9.2645 0.0179037 6.53663 1.40625 4.81137 3.74512C4.72023 3.85905 4.63559 3.97624 4.55747 4.09993C4.47446 4.22363 4.46307 4.38151 4.52817 4.51497C4.5949 4.64844 4.72674 4.73796 4.87485 4.74772C5.02296 4.75749 5.16619 4.68913 5.2492 4.5638C5.31919 4.45312 5.39731 4.3457 5.48032 4.24316C7.0477 2.11426 9.52817 0.851237 12.1698 0.833333Z" fill="#C0C0C0"/>
<path d="M3.72576 5.63151C3.68507 5.73893 3.6867 5.85775 3.72739 5.96354L3.76645 6.03516C3.78273 6.05794 3.80226 6.0791 3.82342 6.097C3.84132 6.11654 3.86248 6.13281 3.88527 6.14746C3.90968 6.16048 3.9341 6.1735 3.96014 6.18327C4.0643 6.21908 4.17661 6.21745 4.27915 6.17676C4.32798 6.1556 4.37192 6.12305 4.40773 6.08561C4.51515 5.9668 4.54933 5.80078 4.49887 5.64941C4.47934 5.60059 4.45005 5.55501 4.41261 5.51432C4.3768 5.47363 4.33449 5.44108 4.28566 5.41667C4.18475 5.36947 4.06919 5.36296 3.96339 5.40039C3.85434 5.44108 3.76808 5.52409 3.72576 5.63151Z" fill="#C0C0C0"/>
<path d="M12.1665 25C11.8931 25 11.6375 24.8665 11.4813 24.6403L4.7951 14.6436C4.77882 14.6191 4.76417 14.5915 4.75278 14.5622C3.58091 12.959 2.96567 11.0156 3.00148 9.02832C3.00473 8.79883 3.19354 8.61491 3.42466 8.61816C3.65415 8.62142 3.83807 8.81022 3.83481 9.04134C3.80063 10.8822 4.38331 12.6823 5.48846 14.1553C5.51613 14.1911 5.53566 14.2318 5.55031 14.2741L12.1698 24.1732L18.7892 14.266C18.8006 14.2269 18.8202 14.1895 18.8462 14.1553C20.731 11.6292 21.0288 8.25521 19.6177 5.4362C18.2049 2.61719 15.3241 0.836588 12.1714 0.833333C11.9403 0.833333 11.7547 0.646159 11.7547 0.416667C11.7547 0.187175 11.9403 0 12.1714 0C15.6187 0.00325521 18.7746 1.9401 20.3371 5.01302C21.9012 8.08594 21.6082 11.7773 19.5786 14.5654C19.5689 14.5931 19.5558 14.6191 19.5379 14.6436L12.8566 24.6354C12.7004 24.8633 12.4432 25 12.1665 25Z" fill="#C0C0C0"/>
<path d="M11.7515 21.6667C11.6066 21.6667 11.4715 21.5918 11.395 21.4681L8.0617 16.0514C7.98358 15.9245 7.98032 15.7666 8.05031 15.6348C8.12192 15.5046 8.25701 15.4215 8.40512 15.4167C8.55324 15.4118 8.69321 15.4883 8.77134 15.6152L12.1047 21.0319C12.1844 21.1589 12.1877 21.3216 12.1144 21.4534C12.0412 21.5853 11.9012 21.6667 11.7515 21.6667Z" fill="#C0C0C0"/>
<path d="M12.1666 13.75C9.63564 13.75 7.58323 11.6976 7.58323 9.16667C7.58323 6.63574 9.63564 4.58333 12.1666 4.58333C14.6991 4.58333 16.7499 6.63574 16.7499 9.16667C16.7483 11.696 14.6975 13.7467 12.1666 13.75ZM12.1666 5.41667C10.0963 5.41667 8.41656 7.09473 8.41656 9.16667C8.41656 11.2386 10.0963 12.9167 12.1666 12.9167C14.2385 12.9167 15.9166 11.2386 15.9166 9.16667C15.9149 7.09635 14.2369 5.41992 12.1666 5.41667Z" fill="#C0C0C0"/>
<path d="M7.9999 14.5833C7.9999 14.8128 7.81435 15 7.58323 15C7.35374 15 7.16656 14.8128 7.16656 14.5833C7.16656 14.3538 7.35374 14.1667 7.58323 14.1667C7.81435 14.1667 7.9999 14.3538 7.9999 14.5833Z" fill="#C0C0C0"/>
</svg>
