<svg width="40" height="40" viewBox="0 0 40 40" fill="none" xmlns="http://www.w3.org/2000/svg">
<g clip-path="url(#clip0)">
<path d="M39.9685 26.4668L35.6397 12.6932L36.5938 13.2441C36.9127 13.428 37.3203 13.3187 37.5043 12.9998C37.6884 12.681 37.5792 12.2734 37.2605 12.0892L36.0735 11.4038C36.3707 10.7487 36.5583 10.0493 36.6289 9.33336H37.9991C38.3673 9.33336 38.6657 9.03484 38.6657 8.66672C38.6657 8.29852 38.3673 8.00008 37.9991 8.00008H36.632C36.5593 7.28438 36.37 6.58531 36.0718 5.93062L37.2605 5.24422C37.4669 5.12523 37.5942 4.90508 37.5943 4.66672C37.5943 4.42844 37.4672 4.2082 37.2608 4.08906C37.0544 3.96992 36.8002 3.97 36.5939 4.08922L35.4025 4.77719C34.9821 4.19484 34.471 3.68375 33.8886 3.26336L34.5766 2.07203C34.7604 1.75312 34.6511 1.34555 34.3323 1.16148C34.0135 0.977422 33.6059 1.08664 33.4217 1.40531L32.7353 2.59398C32.0806 2.29578 31.3815 2.10648 30.6658 2.03375V0.666641C30.6657 0.298516 30.3673 0 29.9991 0C29.6309 0 29.3325 0.298516 29.3325 0.666641V2.03438C28.6164 2.10641 27.9169 2.29438 27.2613 2.59094L26.5766 1.40531C26.3924 1.08656 25.9848 0.977422 25.666 1.16148C25.3471 1.34555 25.2378 1.75312 25.4217 2.07203L26.1046 3.25477C25.5205 3.67555 25.0086 4.18844 24.5889 4.77328L23.4044 4.08922C23.1981 3.97 22.9438 3.96992 22.7375 4.08906C22.5311 4.2082 22.4039 4.42844 22.404 4.66672C22.4041 4.905 22.5313 5.12516 22.7378 5.24422L23.9236 5.92891C23.7202 6.37867 23.5679 6.84977 23.4694 7.33344H6.66574C6.65824 7.33344 6.65207 7.33742 6.64465 7.33773C6.59238 7.3418 6.54082 7.35219 6.49105 7.36875C6.45746 7.37508 6.42434 7.38398 6.39207 7.39539C6.35113 7.41711 6.3127 7.44305 6.27723 7.47281C6.24434 7.49344 6.2134 7.51695 6.18465 7.54305C6.15965 7.57383 6.13746 7.60672 6.11832 7.64141C6.08996 7.67953 6.06598 7.7207 6.04668 7.76414C6.04387 7.77148 6.0377 7.77633 6.0352 7.78391L4.42973 12.4669L0.0296484 26.4669C0.0265234 26.4914 0.0248047 26.5161 0.0244922 26.5409C0.0117578 26.5819 0.00324219 26.624 -0.000976562 26.6667V30.6667C-0.000976562 31.0349 0.297539 31.3334 0.665664 31.3334H16.4073L14.8518 36H9.9991C9.7466 35.9999 9.51566 36.1426 9.40277 36.3685L8.06941 39.0352C7.96613 39.2418 7.97715 39.4873 8.09863 39.6838C8.22012 39.8804 8.43473 40 8.66574 40H31.3324C31.5635 40 31.778 39.8804 31.8995 39.6838C32.021 39.4873 32.0321 39.2419 31.9287 39.0352L30.5954 36.3685C30.4824 36.1427 30.2515 36 29.999 36H25.1463L23.5907 31.3334H39.3324C39.7006 31.3334 39.999 31.0349 39.999 30.6667V26.6667C39.9948 26.624 39.9863 26.5819 39.9736 26.5409C39.9734 26.5161 39.9717 26.4913 39.9685 26.4668ZM10.7899 26L11.3612 22.6666H19.3324V26H10.7899ZM1.57426 26L2.62176 22.6666H10.0083L9.43684 26H1.57426ZM4.08832 18H10.8083L10.2369 21.3334H3.04082L4.08832 18ZM5.5548 13.3334H11.6083L11.0368 16.6667H4.5073L5.5548 13.3334ZM7.14184 8.66664H12.5193L11.8528 12H5.99902L7.14184 8.66664ZM26.237 8.66664L26.8084 12H20.6657V8.66664H26.237ZM19.3325 13.3334V16.6667H12.3896L12.961 13.3334H19.3325ZM20.6657 13.3334H27.0369L27.6083 16.6667H20.6657V13.3334ZM19.3325 18V21.3334H11.5898L12.1611 18H19.3325ZM20.6657 18H27.8369L28.4083 21.3334H20.6657V18ZM29.19 18H35.9097L36.9573 21.3334H29.7614L29.19 18ZM28.9614 16.6666L28.39 13.3333H34.4432L35.4907 16.6666H28.9614ZM32.9765 8.66664L34.0241 12H28.1614L27.59 8.66664H32.9765ZM19.3325 12H13.2123L13.8789 8.66664H19.3325V12ZM20.6657 22.6666H28.6368L29.2082 26H20.6657V22.6666ZM30.5614 26L29.99 22.6666H37.3764L38.4239 26H30.5614ZM29.9991 3.33336C32.9432 3.33672 35.3291 5.72258 35.3325 8.66672C35.3292 9.31555 35.2063 9.95813 34.9701 10.5624L34.102 7.80016C34.0986 7.78961 34.0904 7.7825 34.0866 7.77219C34.0686 7.72914 34.0461 7.6882 34.0193 7.65C33.9393 7.49953 33.7942 7.39461 33.6263 7.3657C33.5849 7.35289 33.5422 7.3443 33.499 7.34C33.4875 7.33938 33.4777 7.33336 33.466 7.33336H24.8411C25.4418 4.97633 27.5668 3.32852 29.9991 3.33336ZM30.2536 38.6666H9.74457L10.4112 37.3333H29.587L30.2536 38.6666ZM23.741 36H16.2572L17.8129 31.3334H22.1854L23.741 36ZM38.6657 30H1.33246V27.3334H38.6658L38.6657 30Z" fill="#0271B9"/>
</g>
<defs>
<clipPath id="clip0">
<rect width="40" height="40" fill="white"/>
</clipPath>
</defs>
</svg>
